HIERARCHY
ROOT joint_0
{
	OFFSET 0.000000 0.000000 0.000000
	CHANNELS 6 Xposition Yposition Zposition Zrotation Yrotation Xrotation 
	JOINT joint_1
	{
		OFFSET 6.579712 -2.778931 100.531982
		CHANNELS 3 Zrotation Yrotation Xrotation
		JOINT joint_2
		{
			OFFSET -3.313232 -1.302856 91.974976
			CHANNELS 3 Zrotation Yrotation Xrotation
			JOINT joint_3
			{
				OFFSET -3.421509 -1.641846 91.864014
				CHANNELS 3 Zrotation Yrotation Xrotation
				JOINT joint_4
				{
					OFFSET 7.697388 -4.642578 123.278931
					CHANNELS 3 Zrotation Yrotation Xrotation
					JOINT joint_5
					{
						OFFSET 24.842529 -5.941528 79.695068
						CHANNELS 3 Zrotation Yrotation Xrotation
						End Site
						{
							OFFSET 0.000000 0.000000 0.000000
						}
					}
				}
				JOINT joint_6
				{
					OFFSET -0.159668 -29.112976 68.364014
					CHANNELS 3 Zrotation Yrotation Xrotation
					JOINT joint_7
					{
						OFFSET -18.356079 -115.987061 -20.069092
						CHANNELS 3 Zrotation Yrotation Xrotation
						JOINT joint_8
						{
							OFFSET 31.719482 -11.733276 -267.170898
							CHANNELS 3 Zrotation Yrotation Xrotation
							JOINT joint_9
							{
								OFFSET 29.329956 -5.879517 -234.654053
								CHANNELS 3 Zrotation Yrotation Xrotation
								End Site
								{
									OFFSET 0.000000 0.000000 0.000000
								}
							}
						}
					}
				}
				JOINT joint_10
				{
					OFFSET 8.802979 23.897949 69.798950
					CHANNELS 3 Zrotation Yrotation Xrotation
					JOINT joint_11
					{
						OFFSET 21.159058 115.524292 -19.981934
						CHANNELS 3 Zrotation Yrotation Xrotation
						JOINT joint_12
						{
							OFFSET 18.809204 5.403442 -268.593018
							CHANNELS 3 Zrotation Yrotation Xrotation
							JOINT joint_13
							{
								OFFSET 20.807861 0.421265 -235.639038
								CHANNELS 3 Zrotation Yrotation Xrotation
								End Site
								{
									OFFSET 0.000000 0.000000 0.000000
								}
							}
						}
					}
				}
			}
		}
	}
	JOINT joint_14
	{
		OFFSET -9.713379 -79.513916 -99.348022
		CHANNELS 3 Zrotation Yrotation Xrotation
		JOINT joint_15
		{
			OFFSET -40.607788 -6.518372 -502.938019
			CHANNELS 3 Zrotation Yrotation Xrotation
			JOINT joint_16
			{
				OFFSET -19.807617 -7.437378 -399.590012
				CHANNELS 3 Zrotation Yrotation Xrotation
				JOINT joint_17
				{
					OFFSET 171.701660 -44.751282 -77.782000
					CHANNELS 3 Zrotation Yrotation Xrotation
					End Site
					{
						OFFSET 0.000000 0.000000 0.000000
					}
				}
			}
		}
	}
	JOINT joint_18
	{
		OFFSET 17.854858 79.618652 -98.128052
		CHANNELS 3 Zrotation Yrotation Xrotation
		JOINT joint_19
		{
			OFFSET -24.848877 16.861816 -503.722992
			CHANNELS 3 Zrotation Yrotation Xrotation
			JOINT joint_20
			{
				OFFSET -30.162476 14.470093 -398.750008
				CHANNELS 3 Zrotation Yrotation Xrotation
				JOINT joint_21
				{
					OFFSET 176.096680 -10.987549 -80.021000
					CHANNELS 3 Zrotation Yrotation Xrotation
					End Site
					{
						OFFSET 0.000000 0.000000 0.000000
					}
				}
			}
		}
	}
}
MOTION
Frames: 7
Frame Time: 0.016667
-2126.296875 869.724426 1096.240967 -2.034688 11.468446 0.011248 -0.957754 -4.043113 -0.808391 0.803119 0.509866 0.202694 1.162006 -0.809134 -0.147730 -2.979580 -4.730622 8.006231 0.000000 0.000000 0.000000 -13.569509 -16.660323 -12.625554 -63.734926 -2.479783 5.085677 -27.461779 -55.530713 130.858468 0.000000 0.000000 0.000000 4.902012 -7.694185 6.725567 11.135731 3.351608 7.321043 -173.145675 -42.354941 155.844078 0.000000 0.000000 0.000000 -0.530440 -31.637815 -16.758033 -1.610068 46.996456 10.532543 -5.103366 -9.633742 -4.455974 0.000000 0.000000 0.000000 0.808808 -2.553563 3.962999 2.298087 17.411191 2.865887 2.482144 1.803613 1.103882 0.000000 0.000000 0.000000 
-2111.658936 864.643738 1094.697021 -2.328677 12.180756 -0.005945 -0.909875 -4.349745 -0.823433 0.772463 0.596511 0.213885 1.115686 -0.918494 -0.156117 -3.016573 -4.895939 8.086971 0.000000 0.000000 0.000000 -12.785558 -24.365029 -13.916628 -103.266913 1.505691 3.917475 145.862533 59.056640 -165.844704 0.000000 0.000000 0.000000 4.816067 -8.524217 6.967675 11.351587 3.137502 6.925238 -172.851762 -43.047974 155.335992 0.000000 0.000000 0.000000 -0.364740 -33.066945 -17.103242 -1.827001 43.792645 9.798341 -4.987426 -9.535581 -4.383495 0.000000 0.000000 0.000000 0.926178 -2.396829 4.225295 2.373019 17.098628 2.747603 2.521999 2.584228 1.162089 0.000000 0.000000 0.000000 
-2096.746094 859.139343 1092.921021 -2.430602 12.815320 -0.019443 -0.828052 -4.492722 -0.799667 0.672836 0.655404 0.216616 0.966535 -0.975092 -0.149338 -3.066163 -5.079202 8.168830 0.000000 0.000000 0.000000 -12.297717 -25.419206 -14.205465 -97.917796 2.034116 3.454102 -176.299498 41.486715 -127.697943 0.000000 0.000000 0.000000 4.662326 -9.369514 7.255950 11.637880 2.993481 6.442633 -172.366499 -43.823524 154.743573 0.000000 0.000000 0.000000 -0.065487 -34.177083 -17.379112 -1.915316 40.232453 9.222109 -4.406983 -9.295359 -4.107471 0.000000 0.000000 0.000000 0.931055 -2.284506 4.559885 2.346686 17.001792 2.638088 2.459582 3.466742 1.187000 0.000000 0.000000 0.000000 
-2081.502930 853.182373 1091.019043 -2.332846 13.449835 -0.045714 -0.758858 -4.530833 -0.704418 0.507577 0.704317 0.195562 0.743423 -0.964079 -0.125859 -3.132616 -5.296251 8.262210 0.000000 0.000000 0.000000 -11.216949 -30.362834 -15.727918 -137.239257 1.935159 2.739687 -120.730117 18.917020 -113.667962 0.000000 0.000000 0.000000 4.406173 -10.223443 7.686068 11.867495 2.984917 5.700747 -171.671360 -44.773306 154.263871 0.000000 0.000000 0.000000 0.414458 -35.048255 -17.566550 -1.740079 36.221554 8.720160 -3.281721 -9.039194 -3.624958 0.000000 0.000000 0.000000 0.768549 -2.262565 4.979833 2.171671 17.032364 2.568427 2.243934 4.546407 1.167266 0.000000 0.000000 0.000000 
-2065.984375 846.800720 1088.884033 -2.006616 13.986488 -0.043980 -0.714727 -4.366195 -0.571756 0.272598 0.708674 0.167298 0.442929 -0.904742 -0.087970 -3.196418 -5.536501 8.348721 0.000000 0.000000 0.000000 -9.644887 -35.812218 -17.784589 156.413577 0.564909 7.451925 -33.597850 -30.674459 -113.714429 0.000000 0.000000 0.000000 4.088142 -11.048831 8.196720 11.968062 3.027370 4.833600 -171.045976 -45.958172 154.005042 0.000000 0.000000 0.000000 1.040183 -35.527148 -17.727781 -1.303493 31.707974 8.196307 -1.864927 -8.416572 -2.924940 0.000000 0.000000 0.000000 0.472223 -2.268130 5.469286 1.877628 17.270370 2.505504 1.901316 5.748891 1.107464 0.000000 0.000000 0.000000 
-2050.286133 839.804077 1086.165039 -1.348397 14.366412 0.059125 -0.725027 -3.978203 -0.492793 -0.033469 0.641206 0.163648 0.077113 -0.824688 -0.044883 -3.218232 -5.745952 8.409659 0.000000 0.000000 0.000000 -8.146986 -39.456986 -19.420622 126.154328 1.455902 11.672668 -8.478428 -17.243354 -116.070252 0.000000 0.000000 0.000000 3.802122 -11.662899 8.661147 12.119418 2.971891 4.149158 -170.666985 -47.211201 153.681506 0.000000 0.000000 0.000000 1.465128 -35.601656 -17.809351 -1.023826 27.390484 7.631402 -0.963719 -7.514182 -2.340799 0.000000 0.000000 0.000000 0.063132 -2.510632 6.061432 1.537613 18.240116 2.322764 1.488755 6.880553 1.014504 0.000000 0.000000 0.000000 
-2034.292725 832.131531 1082.787964 -0.478460 14.664929 0.170016 -0.799767 -3.532237 -0.285823 -0.365723 0.584038 0.109025 -0.279313 -0.728245 -0.004933 -3.203962 -5.910934 8.405579 0.000000 0.000000 0.000000 -9.131941 -30.167283 -17.236729 -173.314241 5.515816 4.562827 -85.761076 17.597817 -112.728019 0.000000 0.000000 0.000000 3.623216 -12.055870 9.031941 12.410853 2.837555 3.726308 -170.493900 -48.365959 153.101633 0.000000 0.000000 0.000000 1.511107 -35.350026 -17.583030 -1.244881 23.137006 7.160628 -0.928350 -6.806350 -2.145008 0.000000 0.000000 0.000000 -0.406334 -3.071303 6.847603 1.209057 19.933320 1.988005 1.058136 8.146349 0.921817 0.000000 0.000000 0.000000 
